<svg width="271" height="75" viewBox="0 0 271 75" fill="none" xmlns="http://www.w3.org/2000/svg">
<g clip-path="url(#clip0_2263_689)">
<path d="M67.0449 29.5138V59.4059H74.8599V44.9863H101.088V38.3577H74.8599V31.1666C74.8599 29.2484 76.4334 27.685 78.3704 27.685H103.139V20.8574H75.7702C70.9597 20.8574 67.0449 24.74 67.0449 29.5109V29.5138Z" fill="white"/>
<path d="M116.721 20.8496H108.9V59.4068H116.721V20.8496Z" fill="white"/>
<path d="M5.54883 30.9721V59.4076H13.3696V26.2617H10.2983C7.68072 26.2617 5.54883 28.3761 5.54883 30.9721Z" fill="white"/>
<path d="M154.917 46.6255L124.757 20.8496H122.482V59.4068H129.434V33.6857L159.594 59.4068H161.866V20.8496H154.917V46.6255Z" fill="white"/>
<path d="M175.449 20.8496H167.628V59.4068H175.449V20.8496Z" fill="white"/>
<path d="M181.213 20.8496V27.6022H197.096V59.4068H204.949V27.6022H221.338L215.297 20.8496H181.213Z" fill="white"/>
<path d="M261.314 20.8496L246.001 37.7817L230.633 20.8496H220.506L241.973 43.6199V59.4068H249.765V43.6718L270.999 20.8496H261.314Z" fill="white"/>
<path d="M57.9047 44.1131C61.1011 47.7706 61.0051 53.3723 57.5615 56.8193C53.7689 60.6153 47.9055 60.6932 44.1623 56.9982C44.1478 56.9837 44.1361 56.9693 44.1245 56.9549C44.1129 56.9434 44.0983 56.9318 44.0867 56.9203C44.0867 56.9203 44.0867 56.9203 44.0838 56.9174C43.1909 56.0867 42.519 55.1088 42.0479 53.9983C41.5767 52.957 41.3149 51.8609 41.2568 50.7561C41.2451 50.6263 41.2277 50.4965 41.219 50.3638C41.0881 48.5235 41.0794 46.6688 40.8234 44.8458C40.457 42.2093 38.9213 40.4757 36.2135 40.0719C34.2591 39.7806 32.2726 39.694 30.2978 39.5786C27.6162 39.4229 25.4668 38.5056 23.8556 36.8413C23.8061 36.7922 23.7509 36.7518 23.7014 36.7028C19.903 32.9501 19.8943 27.1897 23.681 23.4312C27.3399 19.7996 33.3807 19.7477 36.9843 23.3158C37.2548 23.5841 37.4991 23.8668 37.7317 24.161C39.0929 25.7792 39.8113 27.8618 39.9363 30.3165C40.0236 31.9809 40.1312 33.5587 40.3726 35.2C40.8612 38.5373 42.5161 40.1152 45.9074 40.5132C47.635 40.7151 49.383 40.7296 51.1251 40.8074C52.4194 40.8651 53.6758 41.2113 54.8188 41.7766C55.7437 42.2064 56.6104 42.7862 57.3666 43.5333C57.3812 43.5477 57.3928 43.5621 57.4074 43.5766C57.419 43.5881 57.4306 43.5968 57.4423 43.6083C57.579 43.7439 57.7011 43.8881 57.8262 44.0294C57.8494 44.0554 57.8756 44.0814 57.8989 44.1102L57.9047 44.1131ZM2.8566 16.0296C-0.941826 12.2768 -0.950552 6.51646 2.83624 2.75795C6.49506 -0.87364 12.5359 -0.925561 16.1395 2.64257C19.8041 6.27128 19.8564 12.2451 16.2558 15.8507C12.4632 19.6467 6.59977 19.7246 2.8566 16.0296Z" fill="url(#paint0_linear_2263_689)"/>
<path d="M219.532 74.956V68.9794H220.704V71.8206L223.232 68.9707H224.52L222.211 71.6331L224.663 74.9532H223.339L221.472 72.3744L220.699 73.1677V74.9532H219.526L219.532 74.956Z" fill="white"/>
<path d="M228.772 74.9552V68.9785H229.944V74.9552H228.772Z" fill="white"/>
<path d="M235.933 71.1188V74.9552H234.761V68.9785H235.703L238.809 72.9187V68.9872H239.973V74.9552H239.004L235.933 71.1188Z" fill="white"/>
<path d="M244.801 74.9552V68.9785H246.991C247.648 68.9785 248.195 69.1112 248.637 69.3795C249.079 69.6448 249.411 70.0054 249.629 70.4554C249.85 70.9082 249.96 71.4073 249.96 71.9582C249.96 72.564 249.838 73.0918 249.597 73.5418C249.353 73.9918 249.009 74.3379 248.567 74.586C248.122 74.8341 247.599 74.9552 246.994 74.9552H244.804H244.801ZM248.783 71.9582C248.783 71.5717 248.713 71.2313 248.57 70.9342C248.428 70.64 248.224 70.4092 247.959 70.2448C247.695 70.0804 247.372 69.9967 246.991 69.9967H245.973V73.937H246.991C247.381 73.937 247.709 73.8504 247.971 73.6774C248.233 73.5043 248.434 73.2678 248.573 72.9707C248.713 72.6736 248.78 72.3361 248.78 71.9611L248.783 71.9582Z" fill="white"/>
<path d="M212.56 72.3737V71.3555H215.14V72.3737H212.56Z" fill="white"/>
<path d="M180.961 73.4245C180.961 73.7562 180.873 74.036 180.699 74.261C180.524 74.4889 180.286 74.6619 179.989 74.7773C179.692 74.8956 179.37 74.9533 179.018 74.9533H176.106V68.9766H179.332C179.614 68.9766 179.858 69.0516 180.065 69.1987C180.271 69.3487 180.428 69.539 180.539 69.7698C180.649 70.0034 180.705 70.2457 180.705 70.4967C180.705 70.7823 180.632 71.0534 180.484 71.3101C180.335 71.5668 180.123 71.7572 179.838 71.887C180.184 71.988 180.454 72.1697 180.658 72.4351C180.859 72.6976 180.961 73.0264 180.961 73.4187V73.4245ZM177.276 69.9746V71.4803H178.837C178.968 71.4803 179.087 71.4486 179.195 71.388C179.303 71.3274 179.39 71.238 179.454 71.1284C179.518 71.0159 179.553 70.8832 179.553 70.7332C179.553 70.5832 179.524 70.4419 179.463 70.3323C179.404 70.2227 179.323 70.1361 179.224 70.0727C179.125 70.0092 179.015 69.9746 178.89 69.9746H177.278H177.276ZM179.78 73.1966C179.78 73.0437 179.748 72.9081 179.687 72.787C179.626 72.6658 179.541 72.5707 179.436 72.4957C179.332 72.4235 179.213 72.386 179.076 72.386H177.276V73.9696H179.015C179.157 73.9696 179.285 73.935 179.402 73.8658C179.518 73.7966 179.608 73.7014 179.678 73.5831C179.745 73.4649 179.78 73.335 179.78 73.1966Z" fill="white"/>
<path d="M186.944 68.9824H188.13L190.346 74.9591H189.142L188.642 73.4707H186.429L185.926 74.9591H184.722L186.944 68.9824ZM188.366 72.6515L187.537 70.1853L186.705 72.6515H188.366Z" fill="white"/>
<path d="M195.741 71.1188V74.9552H194.569V68.9785H195.512L198.618 72.9187V68.9872H199.781V74.9552H198.813L195.741 71.1188Z" fill="white"/>
<path d="M204.609 74.956V68.9794H205.781V71.8206L208.309 68.9707H209.597L207.288 71.6331L209.74 74.9532H208.416L206.549 72.3744L205.775 73.1677V74.9532H204.603L204.609 74.956Z" fill="white"/>
<path d="M144.989 68.9844H146.175L148.391 74.9611H147.187L146.687 73.4727H144.474L143.971 74.9611H142.766L144.989 68.9844ZM146.411 72.6535L145.582 70.1872L144.75 72.6535H146.411Z" fill="white"/>
<path d="M152.617 74.9572V68.9805H153.789V73.9389H156.86V74.9572H152.617Z" fill="white"/>
<path d="M161.14 74.9572V68.9805H162.312V73.9389H165.383V74.9572H161.14Z" fill="white"/>
<path d="M108.851 74.9572V68.9805H112.9V69.9987H110.024V71.539H112.417V72.4909H110.024V74.9572H108.851Z" fill="white"/>
<path d="M119.764 74.9998C119.322 74.9998 118.923 74.9161 118.568 74.746C118.21 74.5787 117.902 74.3479 117.643 74.0594C117.384 73.771 117.181 73.445 117.041 73.0845C116.899 72.7239 116.829 72.3518 116.829 71.9682C116.829 71.5845 116.905 71.1894 117.053 70.8288C117.204 70.4682 117.411 70.1452 117.672 69.8596C117.934 69.5769 118.248 69.3519 118.609 69.1875C118.97 69.0231 119.365 68.9395 119.79 68.9395C120.214 68.9395 120.622 69.026 120.982 69.1991C121.343 69.3721 121.648 69.6058 121.904 69.8971C122.16 70.1884 122.355 70.5144 122.495 70.8721C122.634 71.2326 122.701 71.6019 122.701 71.9826C122.701 72.3634 122.628 72.7528 122.486 73.1133C122.34 73.4739 122.137 73.797 121.875 74.0825C121.613 74.3652 121.302 74.5902 120.942 74.7517C120.581 74.9133 120.191 74.9969 119.767 74.9969L119.764 74.9998ZM118.016 71.9682C118.016 72.2249 118.056 72.4759 118.135 72.7182C118.213 72.9605 118.33 73.1739 118.478 73.3614C118.629 73.5489 118.813 73.6989 119.031 73.8085C119.249 73.9181 119.496 73.9729 119.772 73.9729C120.049 73.9729 120.313 73.9152 120.529 73.7998C120.744 73.6845 120.927 73.5316 121.075 73.3412C121.227 73.1508 121.337 72.9345 121.41 72.6922C121.482 72.4499 121.52 72.2105 121.52 71.9682C121.52 71.7115 121.48 71.4605 121.401 71.224C121.323 70.9846 121.206 70.7711 121.052 70.5836C120.898 70.3961 120.715 70.2461 120.499 70.1365C120.284 70.0269 120.037 69.9721 119.761 69.9721C119.484 69.9721 119.237 70.0298 119.019 70.1452C118.801 70.2606 118.618 70.4105 118.466 70.6009C118.315 70.7884 118.205 71.0019 118.126 71.2413C118.051 71.4807 118.013 71.723 118.013 71.9682H118.016Z" fill="white"/>
<path d="M127.172 74.9572V68.9805H129.845C130.115 68.9805 130.368 69.0353 130.604 69.1478C130.839 69.2603 131.043 69.4103 131.214 69.6035C131.386 69.7939 131.52 70.0074 131.613 70.2439C131.706 70.4804 131.753 70.7198 131.753 70.9679C131.753 71.216 131.709 71.4611 131.622 71.6919C131.534 71.9227 131.409 72.1246 131.244 72.3034C131.081 72.4794 130.886 72.6149 130.668 72.713L132.043 74.96H130.755L129.516 72.9582H128.344V74.96H127.172V74.9572ZM128.344 71.9371H129.813C129.961 71.9371 130.089 71.8938 130.202 71.8073C130.316 71.7207 130.406 71.6054 130.473 71.4583C130.54 71.3111 130.575 71.1496 130.575 70.9708C130.575 70.7919 130.534 70.6189 130.455 70.4746C130.377 70.3275 130.278 70.215 130.159 70.1285C130.039 70.0448 129.909 70.0016 129.769 70.0016H128.344V71.9371Z" fill="white"/>
</g>
<defs>
<linearGradient id="paint0_linear_2263_689" x1="59.8272" y1="59.7173" x2="0.492894" y2="-0.0887783" gradientUnits="userSpaceOnUse">
<stop stop-color="#FFA913"/>
<stop offset="1" stop-color="#EC397D"/>
</linearGradient>
<clipPath id="clip0_2263_689">
<rect width="271" height="75" fill="white"/>
</clipPath>
</defs>
</svg>
