<svg width="184" height="51" viewBox="0 0 184 51" fill="none" xmlns="http://www.w3.org/2000/svg">
<g id="Layer_1" clip-path="url(#clip0_1931_4245)">
<g id="Group">
<path id="Vector" d="M45.5217 20.0697V40.3963H50.8278V30.591H68.636V26.0835H50.8278V21.1936C50.8278 19.8892 51.8961 18.8261 53.2113 18.8261H70.0281V14.1833H51.4459C48.1797 14.1833 45.5217 16.8235 45.5217 20.0677V20.0697Z" fill="#3A3A80"/>
<path id="Vector_2" d="M79.2501 14.1775H73.9401V40.3963H79.2501V14.1775Z" fill="#3A3A80"/>
<path id="Vector_3" d="M3.76782 21.0602V40.3963H9.07789V17.8572H6.99257C5.2153 17.8572 3.76782 19.2949 3.76782 21.0602Z" fill="#3A3A80"/>
<path id="Vector_4" d="M105.184 31.7051L84.7064 14.1775H83.1621V40.3963H87.8817V22.906L108.36 40.3963H109.902V14.1775H105.184V31.7051Z" fill="#3A3A80"/>
<path id="Vector_5" d="M119.124 14.1775H113.814V40.3963H119.124V14.1775Z" fill="#3A3A80"/>
<path id="Vector_6" d="M123.038 14.1775V18.7692H133.822V40.3963H139.154V18.7692H150.281L146.18 14.1775H123.038Z" fill="#3A3A80"/>
<path id="Vector_7" d="M177.424 14.1775L167.027 25.6912L156.593 14.1775H149.717L164.292 29.6612V40.3963H169.582V29.6965L184 14.1775H177.424Z" fill="#3A3A80"/>
</g>
<path id="Vector_8" d="M39.3153 29.9966C41.4855 32.4837 41.4203 36.2929 39.0822 38.6368C36.5072 41.2181 32.5261 41.2711 29.9846 38.7584C29.9748 38.7486 29.9669 38.7388 29.959 38.729C29.9511 38.7212 29.9412 38.7133 29.9333 38.7055C29.9333 38.7055 29.9333 38.7055 29.9313 38.7035C29.3251 38.1386 28.8689 37.4737 28.549 36.7185C28.2291 36.0104 28.0514 35.2651 28.0119 34.5138C28.004 34.4256 27.9921 34.3373 27.9862 34.2471C27.8973 32.9957 27.8914 31.7344 27.7176 30.4948C27.4688 28.702 26.4262 27.5232 24.5877 27.2486C23.2607 27.0505 21.9119 26.9916 20.5711 26.9132C18.7504 26.8073 17.291 26.1835 16.197 25.0517C16.1635 25.0184 16.1259 24.9909 16.0924 24.9576C13.5134 22.4057 13.5074 18.4887 16.0785 15.9329C18.5628 13.4634 22.6643 13.4281 25.111 15.8544C25.2946 16.0369 25.4605 16.2291 25.6185 16.4291C26.5427 17.5295 27.0304 18.9457 27.1153 20.6149C27.1746 21.7467 27.2477 22.8196 27.4116 23.9357C27.7433 26.2051 28.8669 27.278 31.1695 27.5487C32.3425 27.686 33.5293 27.6958 34.7122 27.7488C35.5909 27.788 36.444 28.0234 37.2201 28.4078C37.848 28.7001 38.4365 29.0943 38.9499 29.6023C38.9598 29.6121 38.9677 29.622 38.9776 29.6318C38.9855 29.6396 38.9934 29.6455 39.0013 29.6533C39.0941 29.7455 39.177 29.8436 39.2619 29.9397C39.2777 29.9574 39.2955 29.975 39.3113 29.9946L39.3153 29.9966ZM1.93943 10.8998C-0.639574 8.34792 -0.645498 4.43088 1.92561 1.87509C4.40983 -0.594388 8.51135 -0.629695 10.9581 1.79664C13.4462 4.26416 13.4818 8.32634 11.037 10.7782C8.46198 13.3595 4.48092 13.4124 1.93943 10.8998Z" fill="url(#paint0_linear_1931_4245)"/>
<g id="Group_2">
<g id="Group_3">
<g id="Group_4">
<path id="Vector_9" d="M149.055 50.9706V46.9064H149.851V48.8385L151.567 46.9005H152.442L150.874 48.711L152.539 50.9686H151.64L150.372 49.2151L149.847 49.7545V50.9686H149.051L149.055 50.9706Z" fill="#3A3A80"/>
<path id="Vector_10" d="M155.329 50.9706V46.9064H156.125V50.9706H155.329Z" fill="#3A3A80"/>
<path id="Vector_11" d="M160.191 48.3618V50.9706H159.395V46.9064H160.035L162.144 49.5858V46.9123H162.934V50.9706H162.276L160.191 48.3618Z" fill="#3A3A80"/>
<path id="Vector_12" d="M166.212 50.9706V46.9064H167.699C168.145 46.9064 168.516 46.9967 168.816 47.1791C169.117 47.3595 169.342 47.6047 169.49 47.9107C169.64 48.2186 169.715 48.558 169.715 48.9326C169.715 49.3445 169.632 49.7035 169.468 50.0095C169.302 50.3154 169.069 50.5508 168.769 50.7195C168.467 50.8882 168.111 50.9706 167.701 50.9706H166.214H166.212ZM168.915 48.9326C168.915 48.6698 168.868 48.4383 168.771 48.2363C168.674 48.0362 168.536 47.8793 168.356 47.7675C168.177 47.6557 167.957 47.5988 167.699 47.5988H167.007V50.2782H167.699C167.963 50.2782 168.186 50.2193 168.364 50.1016C168.542 49.984 168.678 49.8231 168.773 49.6211C168.868 49.4191 168.913 49.1896 168.913 48.9346L168.915 48.9326Z" fill="#3A3A80"/>
</g>
<path id="Vector_13" d="M144.322 49.2151V48.5227H146.073V49.2151H144.322Z" fill="#3A3A80"/>
<g id="Group_5">
<path id="Vector_14" d="M122.866 49.9292C122.866 50.1548 122.807 50.3451 122.688 50.498C122.57 50.653 122.408 50.7707 122.207 50.8491C122.005 50.9296 121.786 50.9688 121.547 50.9688H119.57V46.9046H121.76C121.952 46.9046 122.118 46.9556 122.258 47.0557C122.398 47.1577 122.505 47.2871 122.58 47.4441C122.655 47.6029 122.692 47.7677 122.692 47.9383C122.692 48.1325 122.643 48.3169 122.542 48.4915C122.442 48.666 122.297 48.7955 122.104 48.8838C122.339 48.9524 122.523 49.076 122.661 49.2564C122.797 49.4349 122.866 49.6585 122.866 49.9253V49.9292ZM120.364 47.5833V48.6072H121.425C121.513 48.6072 121.594 48.5856 121.667 48.5444C121.741 48.5032 121.8 48.4424 121.843 48.3679C121.887 48.2914 121.91 48.2012 121.91 48.0992C121.91 47.9972 121.891 47.9011 121.849 47.8265C121.81 47.752 121.754 47.6932 121.687 47.65C121.62 47.6068 121.545 47.5833 121.46 47.5833H120.366H120.364ZM122.064 49.7743C122.064 49.6703 122.043 49.5781 122.001 49.4957C121.96 49.4134 121.902 49.3486 121.831 49.2976C121.76 49.2486 121.679 49.2231 121.587 49.2231H120.364V50.2999H121.545C121.642 50.2999 121.729 50.2764 121.808 50.2293C121.887 50.1822 121.948 50.1175 121.995 50.0371C122.041 49.9567 122.064 49.8684 122.064 49.7743Z" fill="#3A3A80"/>
<path id="Vector_15" d="M126.928 46.9084H127.734L129.239 50.9725H128.421L128.081 49.9604H126.579L126.237 50.9725H125.419L126.928 46.9084ZM127.894 49.4034L127.331 47.7263L126.766 49.4034H127.894Z" fill="#3A3A80"/>
<path id="Vector_16" d="M132.902 48.3618V50.9706H132.106V46.9064H132.746L134.855 49.5858V46.9123H135.645V50.9706H134.987L132.902 48.3618Z" fill="#3A3A80"/>
<path id="Vector_17" d="M138.923 50.9706V46.9064H139.719V48.8385L141.435 46.9005H142.309L140.742 48.711L142.406 50.9686H141.508L140.24 49.2151L139.715 49.7545V50.9686H138.919L138.923 50.9706Z" fill="#3A3A80"/>
</g>
</g>
<g id="Group_6">
<path id="Vector_18" d="M98.4425 46.9085H99.2482L100.753 50.9727H99.9354L99.5958 49.9606H98.093L97.7514 50.9727H96.9338L98.4425 46.9085ZM99.4082 49.4035L98.8454 47.7264L98.2806 49.4035H99.4082Z" fill="#3A3A80"/>
<path id="Vector_19" d="M103.622 50.9706V46.9064H104.418V50.2782H106.503V50.9706H103.622Z" fill="#3A3A80"/>
<path id="Vector_20" d="M109.408 50.9706V46.9064H110.204V50.2782H112.289V50.9706H109.408Z" fill="#3A3A80"/>
</g>
<g id="Group_7">
<path id="Vector_21" d="M73.9065 50.9706V46.9064H76.6553V47.5988H74.7023V48.6462H76.3275V49.2935H74.7023V50.9706H73.9065Z" fill="#3A3A80"/>
<path id="Vector_22" d="M81.3158 51C81.0156 51 80.7451 50.9431 80.5041 50.8274C80.2612 50.7136 80.0519 50.5567 79.8762 50.3606C79.7004 50.1644 79.5622 49.9428 79.4674 49.6976C79.3706 49.4524 79.3232 49.1994 79.3232 48.9385C79.3232 48.6776 79.3746 48.4089 79.4753 48.1637C79.578 47.9185 79.7182 47.6989 79.8959 47.5047C80.0736 47.3125 80.2869 47.1595 80.5318 47.0477C80.7766 46.9358 81.0452 46.879 81.3335 46.879C81.6218 46.879 81.8983 46.9378 82.1432 47.0555C82.388 47.1732 82.5954 47.3321 82.7692 47.5302C82.9429 47.7283 83.0752 47.9499 83.17 48.1931C83.2648 48.4383 83.3102 48.6894 83.3102 48.9483C83.3102 49.2072 83.2609 49.472 83.1641 49.7172C83.0654 49.9624 82.9271 50.1821 82.7494 50.3763C82.5717 50.5685 82.3604 50.7215 82.1155 50.8313C81.8706 50.9412 81.606 50.998 81.3177 50.998L81.3158 51ZM80.1289 48.9385C80.1289 49.1131 80.1566 49.2837 80.2099 49.4485C80.2632 49.6132 80.3422 49.7584 80.4429 49.8859C80.5456 50.0134 80.67 50.1154 80.8181 50.1899C80.9662 50.2645 81.1341 50.3017 81.3217 50.3017C81.5093 50.3017 81.689 50.2625 81.8351 50.184C81.9812 50.1056 82.1056 50.0016 82.2064 49.8722C82.309 49.7427 82.3841 49.5956 82.4335 49.4308C82.4828 49.2661 82.5085 49.1033 82.5085 48.9385C82.5085 48.7639 82.4808 48.5933 82.4275 48.4324C82.3742 48.2696 82.2952 48.1245 82.1906 47.997C82.0859 47.8695 81.9615 47.7675 81.8154 47.693C81.6692 47.6184 81.5014 47.5812 81.3138 47.5812C81.1262 47.5812 80.9583 47.6204 80.8102 47.6989C80.6621 47.7773 80.5377 47.8793 80.435 48.0088C80.3323 48.1363 80.2573 48.2814 80.204 48.4442C80.1526 48.607 80.127 48.7718 80.127 48.9385H80.1289Z" fill="#3A3A80"/>
<path id="Vector_23" d="M86.3453 50.9706V46.9064H88.1601C88.3438 46.9064 88.5156 46.9437 88.6755 47.0202C88.8355 47.0967 88.9737 47.1987 89.0902 47.3301C89.2067 47.4596 89.2976 47.6047 89.3608 47.7655C89.4239 47.9264 89.4555 48.0892 89.4555 48.2579C89.4555 48.4266 89.4259 48.5933 89.3667 48.7502C89.3074 48.9071 89.2225 49.0444 89.11 49.166C88.9994 49.2857 88.8671 49.3779 88.719 49.4446L89.653 50.9725H88.7782L87.937 49.6113H87.1412V50.9725H86.3453V50.9706ZM87.1412 48.9169H88.1384C88.2391 48.9169 88.326 48.8875 88.403 48.8287C88.48 48.7698 88.5412 48.6914 88.5867 48.5913C88.6321 48.4913 88.6558 48.3814 88.6558 48.2598C88.6558 48.1382 88.6281 48.0205 88.5748 47.9225C88.5215 47.8224 88.4544 47.7459 88.3734 47.6871C88.2924 47.6302 88.2036 47.6008 88.1088 47.6008H87.1412V48.9169Z" fill="#3A3A80"/>
</g>
</g>
</g>
<defs>
<linearGradient id="paint0_linear_1931_4245" x1="40.6205" y1="40.6074" x2="0.27281" y2="0.000668019" gradientUnits="userSpaceOnUse">
<stop stop-color="#FFA913"/>
<stop offset="1" stop-color="#EC397D"/>
</linearGradient>
<clipPath id="clip0_1931_4245">
<rect width="184" height="51" fill="white"/>
</clipPath>
</defs>
</svg>
